<svg xmlns="http://www.w3.org/2000/svg" width="512" height="512" enable-background="new 0 0 512 512" viewBox="0 0 512 512" id="physics"><path d="M480 86.223H32c-4.418 0-8-3.582-8-8V41.471c0-4.418 3.582-8 8-8h448c4.418 0 8 3.582 8 8v36.752C488 82.641 484.418 86.223 480 86.223zM40 70.223h432V49.471H40V70.223zM196.445 405.537c-37.25 0-67.556-30.306-67.556-67.557 0-37.25 30.305-67.555 67.556-67.555 37.25 0 67.555 30.305 67.555 67.555C264 375.231 233.695 405.537 196.445 405.537zM196.445 286.426c-28.428 0-51.556 23.127-51.556 51.555 0 28.429 23.128 51.557 51.556 51.557S248 366.409 248 337.98C248 309.553 224.873 286.426 196.445 286.426z"></path><path d="M196.445 365.607c-15.233 0-27.626-12.393-27.626-27.625 0-15.233 12.393-27.627 27.626-27.627s27.626 12.394 27.626 27.627C224.071 353.215 211.678 365.607 196.445 365.607zM196.445 326.355c-6.411 0-11.626 5.216-11.626 11.627 0 6.41 5.215 11.625 11.626 11.625s11.626-5.215 11.626-11.625C208.071 331.571 202.855 326.355 196.445 326.355zM315.557 266.492c-37.251 0-67.556-30.306-67.556-67.557 0-37.249 30.305-67.554 67.556-67.554 37.25 0 67.555 30.305 67.555 67.554C383.111 236.187 352.807 266.492 315.557 266.492zM315.557 147.382c-28.428 0-51.557 23.127-51.557 51.554 0 28.428 23.129 51.557 51.557 51.557s51.555-23.128 51.555-51.557C367.111 170.509 343.984 147.382 315.557 147.382z"></path><path d="M315.557 226.563c-15.233 0-27.627-12.393-27.627-27.626 0-15.233 12.394-27.627 27.627-27.627 15.232 0 27.625 12.394 27.625 27.627C343.182 214.17 330.789 226.563 315.557 226.563zM315.557 187.311c-6.411 0-11.627 5.216-11.627 11.627 0 6.411 5.216 11.626 11.627 11.626 6.41 0 11.625-5.215 11.625-11.626C327.182 192.526 321.967 187.311 315.557 187.311zM136.889 345.98c-4.418 0-8-3.582-8-8V78.223c0-4.418 3.582-8 8-8s8 3.582 8 8V337.98C144.889 342.398 141.308 345.98 136.889 345.98zM256 345.98c-4.418 0-8-3.582-8-8V198.936c0-4.418 3.582-8 8-8 4.418 0 8 3.582 8 8V337.98C264 342.398 260.418 345.98 256 345.98zM375.111 426.393c-4.418 0-8-3.582-8-8V198.936c0-4.418 3.582-8 8-8s8 3.582 8 8v219.457C383.111 422.811 379.529 426.393 375.111 426.393z"></path><path d="M417.294 478.529h-84.365c-4.418 0-8-3.582-8-8v-52.137c0-4.418 3.582-8 8-8h84.365c4.418 0 8 3.582 8 8v52.137C425.294 474.947 421.712 478.529 417.294 478.529zM340.929 462.529h68.365v-36.137h-68.365V462.529zM315.557 147.382c-4.418 0-8-3.582-8-8V78.223c0-4.418 3.582-8 8-8s8 3.582 8 8v61.159C323.557 143.8 319.975 147.382 315.557 147.382z"></path></svg>